<mxfile host="app.diagrams.net" modified="2023-07-14T12:24:50.445Z" agent="Mozilla/5.0 (Macintosh; Intel Mac OS X 10.15; rv:102.0) Gecko/20100101 Firefox/102.0" etag="lb-H-PQYr7aPNc6LZXzE" version="21.5.2" type="github">
  <diagram name="Página-1" id="2CrfE8WvnRpnQF9L1QOg">
    <mxGraphModel dx="984" dy="633" grid="1" gridSize="10" guides="1" tooltips="1" connect="1" arrows="1" fold="1" page="1" pageScale="1" pageWidth="850" pageHeight="1100" math="0" shadow="0">
      <root>
        <mxCell id="0" />
        <mxCell id="1" parent="0" />
        <mxCell id="TPgOUrvoIxnq0UZ94LA--1" value="Deficit de inmunidad humoral" style="shape=table;startSize=30;container=1;collapsible=0;childLayout=tableLayout;strokeColor=default;fontSize=16;rounded=1;" vertex="1" parent="1">
          <mxGeometry x="80" y="90" width="460" height="190" as="geometry" />
        </mxCell>
        <mxCell id="TPgOUrvoIxnq0UZ94LA--2" value="" style="shape=tableRow;horizontal=0;startSize=0;swimlaneHead=0;swimlaneBody=0;strokeColor=inherit;top=0;left=0;bottom=0;right=0;collapsible=0;dropTarget=0;fillColor=none;points=[[0,0.5],[1,0.5]];portConstraint=eastwest;fontSize=16;" vertex="1" parent="TPgOUrvoIxnq0UZ94LA--1">
          <mxGeometry y="30" width="460" height="53" as="geometry" />
        </mxCell>
        <mxCell id="TPgOUrvoIxnq0UZ94LA--3" value="Variable comun" style="shape=partialRectangle;html=1;whiteSpace=wrap;connectable=0;strokeColor=inherit;overflow=hidden;fillColor=none;top=0;left=0;bottom=0;right=0;pointerEvents=1;fontSize=16;" vertex="1" parent="TPgOUrvoIxnq0UZ94LA--2">
          <mxGeometry width="115" height="53" as="geometry">
            <mxRectangle width="115" height="53" as="alternateBounds" />
          </mxGeometry>
        </mxCell>
        <mxCell id="TPgOUrvoIxnq0UZ94LA--4" value="↓ IgG + ↓IgA o IgM" style="shape=partialRectangle;html=1;whiteSpace=wrap;connectable=0;strokeColor=inherit;overflow=hidden;fillColor=none;top=0;left=0;bottom=0;right=0;pointerEvents=1;fontSize=13;" vertex="1" parent="TPgOUrvoIxnq0UZ94LA--2">
          <mxGeometry x="115" width="115" height="53" as="geometry">
            <mxRectangle width="115" height="53" as="alternateBounds" />
          </mxGeometry>
        </mxCell>
        <mxCell id="TPgOUrvoIxnq0UZ94LA--5" value="Trastorno mas frecuente en adulto" style="shape=partialRectangle;html=1;whiteSpace=wrap;connectable=0;strokeColor=inherit;overflow=hidden;fillColor=none;top=0;left=0;bottom=0;right=0;pointerEvents=1;fontSize=13;" vertex="1" parent="TPgOUrvoIxnq0UZ94LA--2">
          <mxGeometry x="230" width="115" height="53" as="geometry">
            <mxRectangle width="115" height="53" as="alternateBounds" />
          </mxGeometry>
        </mxCell>
        <mxCell id="TPgOUrvoIxnq0UZ94LA--14" value="Reposicion Ig c/3 semanas" style="shape=partialRectangle;html=1;whiteSpace=wrap;connectable=0;strokeColor=inherit;overflow=hidden;fillColor=none;top=0;left=0;bottom=0;right=0;pointerEvents=1;fontSize=13;" vertex="1" parent="TPgOUrvoIxnq0UZ94LA--2">
          <mxGeometry x="345" width="115" height="53" as="geometry">
            <mxRectangle width="115" height="53" as="alternateBounds" />
          </mxGeometry>
        </mxCell>
        <mxCell id="TPgOUrvoIxnq0UZ94LA--6" value="" style="shape=tableRow;horizontal=0;startSize=0;swimlaneHead=0;swimlaneBody=0;strokeColor=inherit;top=0;left=0;bottom=0;right=0;collapsible=0;dropTarget=0;fillColor=none;points=[[0,0.5],[1,0.5]];portConstraint=eastwest;fontSize=16;" vertex="1" parent="TPgOUrvoIxnq0UZ94LA--1">
          <mxGeometry y="83" width="460" height="54" as="geometry" />
        </mxCell>
        <mxCell id="TPgOUrvoIxnq0UZ94LA--7" value="Selectivo de IgA" style="shape=partialRectangle;html=1;whiteSpace=wrap;connectable=0;strokeColor=inherit;overflow=hidden;fillColor=none;top=0;left=0;bottom=0;right=0;pointerEvents=1;fontSize=16;" vertex="1" parent="TPgOUrvoIxnq0UZ94LA--6">
          <mxGeometry width="115" height="54" as="geometry">
            <mxRectangle width="115" height="54" as="alternateBounds" />
          </mxGeometry>
        </mxCell>
        <mxCell id="TPgOUrvoIxnq0UZ94LA--8" value="IgA &amp;lt;7mg" style="shape=partialRectangle;html=1;whiteSpace=wrap;connectable=0;strokeColor=inherit;overflow=hidden;fillColor=none;top=0;left=0;bottom=0;right=0;pointerEvents=1;fontSize=13;" vertex="1" parent="TPgOUrvoIxnq0UZ94LA--6">
          <mxGeometry x="115" width="115" height="54" as="geometry">
            <mxRectangle width="115" height="54" as="alternateBounds" />
          </mxGeometry>
        </mxCell>
        <mxCell id="TPgOUrvoIxnq0UZ94LA--9" value="Asintomatica y asociada a celiaca" style="shape=partialRectangle;html=1;whiteSpace=wrap;connectable=0;strokeColor=inherit;overflow=hidden;fillColor=none;top=0;left=0;bottom=0;right=0;pointerEvents=1;fontSize=13;" vertex="1" parent="TPgOUrvoIxnq0UZ94LA--6">
          <mxGeometry x="230" width="115" height="54" as="geometry">
            <mxRectangle width="115" height="54" as="alternateBounds" />
          </mxGeometry>
        </mxCell>
        <mxCell id="TPgOUrvoIxnq0UZ94LA--15" style="shape=partialRectangle;html=1;whiteSpace=wrap;connectable=0;strokeColor=inherit;overflow=hidden;fillColor=none;top=0;left=0;bottom=0;right=0;pointerEvents=1;fontSize=16;" vertex="1" parent="TPgOUrvoIxnq0UZ94LA--6">
          <mxGeometry x="345" width="115" height="54" as="geometry">
            <mxRectangle width="115" height="54" as="alternateBounds" />
          </mxGeometry>
        </mxCell>
        <mxCell id="TPgOUrvoIxnq0UZ94LA--10" value="" style="shape=tableRow;horizontal=0;startSize=0;swimlaneHead=0;swimlaneBody=0;strokeColor=inherit;top=0;left=0;bottom=0;right=0;collapsible=0;dropTarget=0;fillColor=none;points=[[0,0.5],[1,0.5]];portConstraint=eastwest;fontSize=16;" vertex="1" parent="TPgOUrvoIxnq0UZ94LA--1">
          <mxGeometry y="137" width="460" height="53" as="geometry" />
        </mxCell>
        <mxCell id="TPgOUrvoIxnq0UZ94LA--11" value="Por farmacos y neoplasias" style="shape=partialRectangle;html=1;whiteSpace=wrap;connectable=0;strokeColor=inherit;overflow=hidden;fillColor=none;top=0;left=0;bottom=0;right=0;pointerEvents=1;fontSize=16;" vertex="1" parent="TPgOUrvoIxnq0UZ94LA--10">
          <mxGeometry width="115" height="53" as="geometry">
            <mxRectangle width="115" height="53" as="alternateBounds" />
          </mxGeometry>
        </mxCell>
        <mxCell id="TPgOUrvoIxnq0UZ94LA--12" value="&lt;font style=&quot;font-size: 13px;&quot;&gt;Susceptible a encapsulados&lt;br style=&quot;font-size: 13px;&quot;&gt;&lt;/font&gt;" style="shape=partialRectangle;html=1;whiteSpace=wrap;connectable=0;strokeColor=inherit;overflow=hidden;fillColor=none;top=0;left=0;bottom=0;right=0;pointerEvents=1;fontSize=13;" vertex="1" parent="TPgOUrvoIxnq0UZ94LA--10">
          <mxGeometry x="115" width="115" height="53" as="geometry">
            <mxRectangle width="115" height="53" as="alternateBounds" />
          </mxGeometry>
        </mxCell>
        <mxCell id="TPgOUrvoIxnq0UZ94LA--13" value="Anti CD20, esteroides, leucemias" style="shape=partialRectangle;html=1;whiteSpace=wrap;connectable=0;strokeColor=inherit;overflow=hidden;fillColor=none;top=0;left=0;bottom=0;right=0;pointerEvents=1;fontSize=13;" vertex="1" parent="TPgOUrvoIxnq0UZ94LA--10">
          <mxGeometry x="230" width="115" height="53" as="geometry">
            <mxRectangle width="115" height="53" as="alternateBounds" />
          </mxGeometry>
        </mxCell>
        <mxCell id="TPgOUrvoIxnq0UZ94LA--16" style="shape=partialRectangle;html=1;whiteSpace=wrap;connectable=0;strokeColor=inherit;overflow=hidden;fillColor=none;top=0;left=0;bottom=0;right=0;pointerEvents=1;fontSize=16;" vertex="1" parent="TPgOUrvoIxnq0UZ94LA--10">
          <mxGeometry x="345" width="115" height="53" as="geometry">
            <mxRectangle width="115" height="53" as="alternateBounds" />
          </mxGeometry>
        </mxCell>
        <mxCell id="TPgOUrvoIxnq0UZ94LA--17" value="Trastronos de fagocitosis" style="shape=table;startSize=30;container=1;collapsible=0;childLayout=tableLayout;strokeColor=default;fontSize=16;rounded=1;" vertex="1" parent="1">
          <mxGeometry x="570" y="90" width="230" height="190" as="geometry" />
        </mxCell>
        <mxCell id="TPgOUrvoIxnq0UZ94LA--18" value="" style="shape=tableRow;horizontal=0;startSize=0;swimlaneHead=0;swimlaneBody=0;strokeColor=inherit;top=0;left=0;bottom=0;right=0;collapsible=0;dropTarget=0;fillColor=none;points=[[0,0.5],[1,0.5]];portConstraint=eastwest;fontSize=16;" vertex="1" parent="TPgOUrvoIxnq0UZ94LA--17">
          <mxGeometry y="30" width="230" height="53" as="geometry" />
        </mxCell>
        <mxCell id="TPgOUrvoIxnq0UZ94LA--19" value="Chediak Higashi" style="shape=partialRectangle;html=1;whiteSpace=wrap;connectable=0;strokeColor=inherit;overflow=hidden;fillColor=none;top=0;left=0;bottom=0;right=0;pointerEvents=1;fontSize=16;" vertex="1" parent="TPgOUrvoIxnq0UZ94LA--18">
          <mxGeometry width="115" height="53" as="geometry">
            <mxRectangle width="115" height="53" as="alternateBounds" />
          </mxGeometry>
        </mxCell>
        <mxCell id="TPgOUrvoIxnq0UZ94LA--20" value="Susceptibles a infecciones catalasa + &lt;br&gt;(Aureus, nocardia) en piel y mucosas" style="shape=partialRectangle;html=1;whiteSpace=wrap;connectable=0;strokeColor=inherit;overflow=hidden;fillColor=none;top=0;left=0;bottom=0;right=0;pointerEvents=1;fontSize=13;rowspan=3;colspan=1;" vertex="1" parent="TPgOUrvoIxnq0UZ94LA--18">
          <mxGeometry x="115" width="115" height="160" as="geometry">
            <mxRectangle width="115" height="53" as="alternateBounds" />
          </mxGeometry>
        </mxCell>
        <mxCell id="TPgOUrvoIxnq0UZ94LA--23" value="" style="shape=tableRow;horizontal=0;startSize=0;swimlaneHead=0;swimlaneBody=0;strokeColor=inherit;top=0;left=0;bottom=0;right=0;collapsible=0;dropTarget=0;fillColor=none;points=[[0,0.5],[1,0.5]];portConstraint=eastwest;fontSize=16;" vertex="1" parent="TPgOUrvoIxnq0UZ94LA--17">
          <mxGeometry y="83" width="230" height="54" as="geometry" />
        </mxCell>
        <mxCell id="TPgOUrvoIxnq0UZ94LA--24" value="Sx de Job &lt;br&gt;(IgE ↑)" style="shape=partialRectangle;html=1;whiteSpace=wrap;connectable=0;strokeColor=inherit;overflow=hidden;fillColor=none;top=0;left=0;bottom=0;right=0;pointerEvents=1;fontSize=16;" vertex="1" parent="TPgOUrvoIxnq0UZ94LA--23">
          <mxGeometry width="115" height="54" as="geometry">
            <mxRectangle width="115" height="54" as="alternateBounds" />
          </mxGeometry>
        </mxCell>
        <mxCell id="TPgOUrvoIxnq0UZ94LA--25" value="IgA &amp;lt;7mg" style="shape=partialRectangle;html=1;whiteSpace=wrap;connectable=0;strokeColor=inherit;overflow=hidden;fillColor=none;top=0;left=0;bottom=0;right=0;pointerEvents=1;fontSize=13;" vertex="1" visible="0" parent="TPgOUrvoIxnq0UZ94LA--23">
          <mxGeometry x="115" width="115" height="54" as="geometry">
            <mxRectangle width="115" height="54" as="alternateBounds" />
          </mxGeometry>
        </mxCell>
        <mxCell id="TPgOUrvoIxnq0UZ94LA--28" value="" style="shape=tableRow;horizontal=0;startSize=0;swimlaneHead=0;swimlaneBody=0;strokeColor=inherit;top=0;left=0;bottom=0;right=0;collapsible=0;dropTarget=0;fillColor=none;points=[[0,0.5],[1,0.5]];portConstraint=eastwest;fontSize=16;" vertex="1" parent="TPgOUrvoIxnq0UZ94LA--17">
          <mxGeometry y="137" width="230" height="53" as="geometry" />
        </mxCell>
        <mxCell id="TPgOUrvoIxnq0UZ94LA--29" value="Granulomatosa crónica" style="shape=partialRectangle;html=1;whiteSpace=wrap;connectable=0;strokeColor=inherit;overflow=hidden;fillColor=none;top=0;left=0;bottom=0;right=0;pointerEvents=1;fontSize=16;" vertex="1" parent="TPgOUrvoIxnq0UZ94LA--28">
          <mxGeometry width="115" height="53" as="geometry">
            <mxRectangle width="115" height="53" as="alternateBounds" />
          </mxGeometry>
        </mxCell>
        <mxCell id="TPgOUrvoIxnq0UZ94LA--30" value="&lt;font style=&quot;font-size: 13px;&quot;&gt;Susceptible a encapsulados&lt;br style=&quot;font-size: 13px;&quot;&gt;&lt;/font&gt;" style="shape=partialRectangle;html=1;whiteSpace=wrap;connectable=0;strokeColor=inherit;overflow=hidden;fillColor=none;top=0;left=0;bottom=0;right=0;pointerEvents=1;fontSize=13;" vertex="1" visible="0" parent="TPgOUrvoIxnq0UZ94LA--28">
          <mxGeometry x="115" width="115" height="53" as="geometry">
            <mxRectangle width="115" height="53" as="alternateBounds" />
          </mxGeometry>
        </mxCell>
        <mxCell id="TPgOUrvoIxnq0UZ94LA--33" value="Trastronos de inmunidad celular" style="shape=table;startSize=30;container=1;collapsible=0;childLayout=tableLayout;strokeColor=default;fontSize=16;rounded=1;" vertex="1" parent="1">
          <mxGeometry x="570" y="300" width="230" height="190" as="geometry" />
        </mxCell>
        <mxCell id="TPgOUrvoIxnq0UZ94LA--34" value="" style="shape=tableRow;horizontal=0;startSize=0;swimlaneHead=0;swimlaneBody=0;strokeColor=inherit;top=0;left=0;bottom=0;right=0;collapsible=0;dropTarget=0;fillColor=none;points=[[0,0.5],[1,0.5]];portConstraint=eastwest;fontSize=16;" vertex="1" parent="TPgOUrvoIxnq0UZ94LA--33">
          <mxGeometry y="30" width="230" height="53" as="geometry" />
        </mxCell>
        <mxCell id="TPgOUrvoIxnq0UZ94LA--35" value="DiGeorge" style="shape=partialRectangle;html=1;whiteSpace=wrap;connectable=0;strokeColor=inherit;overflow=hidden;fillColor=none;top=0;left=0;bottom=0;right=0;pointerEvents=1;fontSize=16;" vertex="1" parent="TPgOUrvoIxnq0UZ94LA--34">
          <mxGeometry width="115" height="53" as="geometry">
            <mxRectangle width="115" height="53" as="alternateBounds" />
          </mxGeometry>
        </mxCell>
        <mxCell id="TPgOUrvoIxnq0UZ94LA--36" value="Susceptibles a infecciones intracelulares (Virus, mycoplasmas, criptococo)" style="shape=partialRectangle;html=1;whiteSpace=wrap;connectable=0;strokeColor=inherit;overflow=hidden;fillColor=none;top=0;left=0;bottom=0;right=0;pointerEvents=1;fontSize=13;rowspan=3;colspan=1;" vertex="1" parent="TPgOUrvoIxnq0UZ94LA--34">
          <mxGeometry x="115" width="115" height="160" as="geometry">
            <mxRectangle width="115" height="53" as="alternateBounds" />
          </mxGeometry>
        </mxCell>
        <mxCell id="TPgOUrvoIxnq0UZ94LA--37" value="" style="shape=tableRow;horizontal=0;startSize=0;swimlaneHead=0;swimlaneBody=0;strokeColor=inherit;top=0;left=0;bottom=0;right=0;collapsible=0;dropTarget=0;fillColor=none;points=[[0,0.5],[1,0.5]];portConstraint=eastwest;fontSize=16;" vertex="1" parent="TPgOUrvoIxnq0UZ94LA--33">
          <mxGeometry y="83" width="230" height="54" as="geometry" />
        </mxCell>
        <mxCell id="TPgOUrvoIxnq0UZ94LA--38" value="SIDA, Linf hodgkin" style="shape=partialRectangle;html=1;whiteSpace=wrap;connectable=0;strokeColor=inherit;overflow=hidden;fillColor=none;top=0;left=0;bottom=0;right=0;pointerEvents=1;fontSize=16;" vertex="1" parent="TPgOUrvoIxnq0UZ94LA--37">
          <mxGeometry width="115" height="54" as="geometry">
            <mxRectangle width="115" height="54" as="alternateBounds" />
          </mxGeometry>
        </mxCell>
        <mxCell id="TPgOUrvoIxnq0UZ94LA--39" value="IgA &amp;lt;7mg" style="shape=partialRectangle;html=1;whiteSpace=wrap;connectable=0;strokeColor=inherit;overflow=hidden;fillColor=none;top=0;left=0;bottom=0;right=0;pointerEvents=1;fontSize=13;" vertex="1" visible="0" parent="TPgOUrvoIxnq0UZ94LA--37">
          <mxGeometry x="115" width="115" height="54" as="geometry">
            <mxRectangle width="115" height="54" as="alternateBounds" />
          </mxGeometry>
        </mxCell>
        <mxCell id="TPgOUrvoIxnq0UZ94LA--40" value="" style="shape=tableRow;horizontal=0;startSize=0;swimlaneHead=0;swimlaneBody=0;strokeColor=inherit;top=0;left=0;bottom=0;right=0;collapsible=0;dropTarget=0;fillColor=none;points=[[0,0.5],[1,0.5]];portConstraint=eastwest;fontSize=16;" vertex="1" parent="TPgOUrvoIxnq0UZ94LA--33">
          <mxGeometry y="137" width="230" height="53" as="geometry" />
        </mxCell>
        <mxCell id="TPgOUrvoIxnq0UZ94LA--41" value="Esteroides, tacrolimus" style="shape=partialRectangle;html=1;whiteSpace=wrap;connectable=0;strokeColor=inherit;overflow=hidden;fillColor=none;top=0;left=0;bottom=0;right=0;pointerEvents=1;fontSize=16;" vertex="1" parent="TPgOUrvoIxnq0UZ94LA--40">
          <mxGeometry width="115" height="53" as="geometry">
            <mxRectangle width="115" height="53" as="alternateBounds" />
          </mxGeometry>
        </mxCell>
        <mxCell id="TPgOUrvoIxnq0UZ94LA--42" value="&lt;font style=&quot;font-size: 13px;&quot;&gt;Susceptible a encapsulados&lt;br style=&quot;font-size: 13px;&quot;&gt;&lt;/font&gt;" style="shape=partialRectangle;html=1;whiteSpace=wrap;connectable=0;strokeColor=inherit;overflow=hidden;fillColor=none;top=0;left=0;bottom=0;right=0;pointerEvents=1;fontSize=13;" vertex="1" visible="0" parent="TPgOUrvoIxnq0UZ94LA--40">
          <mxGeometry x="115" width="115" height="53" as="geometry">
            <mxRectangle width="115" height="53" as="alternateBounds" />
          </mxGeometry>
        </mxCell>
      </root>
    </mxGraphModel>
  </diagram>
</mxfile>
